<?xml version="1.0" encoding="UTF-8"?>
<svg width="756px" height="756px" viewBox="0 0 756 756" version="1.1" xmlns="http://www.w3.org/2000/svg" xmlns:xlink="http://www.w3.org/1999/xlink">
    <title>编组 3</title>
    <g id="页面-1" stroke="none" stroke-width="1" fill="none" fill-rule="evenodd">
        <g id="画板备份-2" transform="translate(-122.000000, -122.000000)" fill="#FFFFFF">
            <g id="编组-3" transform="translate(122.000000, 122.000000)">
                <g id="编组-2">
                    <path d="M378,0 C586.763635,0 756,169.236365 756,378 C756,586.763635 586.763635,756 378,756 C169.236365,756 0,586.763635 0,378 C0,169.236365 169.236365,0 378,0 Z M378.5,23 C182.162771,23 23,182.162771 23,378.5 C23,574.837229 182.162771,734 378.5,734 C574.837229,734 734,574.837229 734,378.5 C734,182.162771 574.837229,23 378.5,23 Z" id="形状结合"></path>
                </g>
                <path d="M378.5,60 C458.910275,60 532.360818,89.79816 588.406145,138.957871 C584.927318,139.288724 581.430559,139.999129 577.967311,141.11545 L577.967311,141.11545 L382.99965,203.959335 L382.99965,284.180335 L532.841188,238.358354 L533.150552,238.26708 C541.508678,235.890744 550.268117,240.632687 552.820749,248.979896 L552.820749,248.979896 L552.960217,249.462981 C553.355604,250.917909 553.543584,252.422261 553.517876,253.93142 L553.517876,253.93142 L552.491349,314.153335 L382.99965,366.038335 L382.99965,448.199335 L551.084349,396.746335 L549.889977,466.903265 L549.880171,467.254354 C549.621613,473.910616 545.258164,479.727205 538.909577,481.82374 L538.909577,481.82374 L382.99965,533.310335 L382.99965,621.146335 L608.503089,545.935617 C628.507798,539.26359 642,520.540793 642,499.452779 L642,499.452779 L642.00558,199.539259 C676.713722,250.545115 697,312.153501 697,378.5 C697,554.402693 554.402693,697 378.5,697 C327.049961,697 278.449239,684.80062 235.432649,663.136672 L235.432649,663.136672 L308.329186,637.366813 C327.909105,630.446244 341,611.934685 341,591.167704 L341,591.167704 L341,254.782173 C341,250.933442 340.399506,247.108276 339.220183,243.444682 C332.958659,223.993112 312.114079,213.300466 292.662509,219.56199 L292.662509,219.56199 L147,266.450205 L147,349.285205 L230.125445,323.899924 L230.434843,323.808765 C238.793855,321.435549 247.551524,326.18076 250.10104,334.528921 C250.590337,336.131078 250.824987,337.800136 250.796417,339.475099 L250.796417,339.475099 L247.077195,557.516612 L247.067488,557.864812 C246.820877,564.235311 242.809352,569.866668 236.841074,572.170372 L236.841074,572.170372 L153.800247,604.226104 C95.8612447,546.548904 60,466.712373 60,378.5 C60,202.597307 202.597307,60 378.5,60 Z M274.450323,104.898288 L257.673568,140.692303 L222.493138,153.170944 L249.083254,171.338383 L242.799645,210.898288 L272.330795,187.656517 L310.525796,198.716565 L297.827813,166.141489 L326.090494,133.922102 L288.898654,137.417188 L274.450323,104.898288 Z" id="形状结合"></path>
            </g>
        </g>
    </g>
</svg>